####
#
# OBJ File Generated by Meshlab
#
####
# Object convex_finger_base.obj
#
# Vertices: 164
# Faces: 324
#
####
vn -0.999442 -0.010252 0.031777
v -0.091924 0.010590 -0.015732
vn 0.999999 -0.000001 0.001592
v 0.012250 -0.014300 -0.000003
vn -0.593839 -0.624628 0.507145
v -0.087916 -0.023031 0.019308
vn 0.257557 0.669081 0.697133
v -0.000021 0.022979 0.013037
vn -0.559168 -0.577839 -0.594502
v -0.090881 -0.022805 -0.019043
vn 0.255114 0.671657 -0.695552
v 0.000021 0.023021 -0.012963
vn 0.256672 -0.672448 0.694214
v -0.000021 -0.023021 0.012963
vn -0.558701 0.600401 0.572164
v -0.087916 0.022940 0.019382
vn -0.728148 -0.685289 0.013397
v -0.091025 -0.022810 -0.015746
vn 0.950427 0.307567 0.045725
v 0.011025 0.019999 0.000519
vn -0.000933 0.130395 -0.991462
v -0.083806 0.016131 -0.019424
vn 0.256361 -0.668688 -0.697951
v 0.000021 -0.022979 -0.013037
vn 0.070952 -0.001589 0.997479
v -0.084354 -0.004584 0.021117
vn 0.865228 -0.000813 0.501378
v 0.010599 -0.014310 0.006119
vn -0.012244 0.999087 0.040922
v -0.066248 0.023905 0.008568
vn -0.033603 -0.999433 -0.002214
v -0.087882 -0.022988 -0.007493
vn 0.547715 0.823870 -0.145763
v 0.009116 0.023004 -0.002636
vn -0.701980 0.262114 -0.662209
v -0.091780 0.017145 -0.019019
vn 0.866819 0.000811 -0.498623
v 0.010619 0.014310 -0.006085
vn 0.441304 -0.897357 -0.000733
v 0.009500 -0.023000 -0.000021
vn 0.066905 0.050990 -0.996456
v -0.039304 0.010170 -0.018198
vn 0.000000 -0.999999 -0.001592
v -0.052536 -0.023519 0.011547
vn 0.110914 -0.001631 0.993829
v -0.022240 0.008024 0.016218
vn 0.095875 -0.190190 0.977055
v -0.022639 -0.020676 0.016197
vn -0.390763 -0.020193 0.920270
v -0.086350 -0.008784 0.021236
vn 0.545695 -0.001376 0.837983
v 0.006108 -0.014317 0.010596
vn 0.861142 0.110499 0.496211
v 0.010599 0.014990 0.006166
vn 0.005117 0.998623 0.052204
v -0.054710 0.023905 0.008251
vn -0.097164 -0.995259 0.004305
v -0.087966 -0.023030 0.018510
vn 0.696480 0.595960 0.399685
v 0.008652 0.022442 0.005049
vn -0.712274 -0.008856 -0.701846
v -0.091780 0.010595 -0.019029
vn -0.962240 0.271876 0.013346
v -0.091924 0.017140 -0.015722
vn -0.366951 0.762407 -0.532995
v -0.087939 0.023028 -0.017591
vn 0.548357 0.001318 -0.836244
v 0.006142 -0.014283 -0.010622
vn 0.683243 0.598988 -0.417603
v 0.008668 0.022458 -0.004950
vn 0.993634 0.112657 -0.000145
v 0.012250 0.015000 0.000043
vn 0.746760 -0.498194 0.440628
v 0.008652 -0.022458 0.004978
vn 0.082156 0.319383 -0.944058
v -0.021458 0.021525 -0.015702
vn 0.125235 -0.001003 -0.992127
v -0.029257 0.010227 -0.017060
vn 0.083548 -0.181497 -0.979836
v -0.029450 -0.021474 -0.016118
vn 0.036149 -0.050273 -0.998081
v -0.062529 -0.012770 -0.018973
vn 0.008396 -0.992527 0.121739
v -0.051087 -0.023524 0.015007
vn 0.004509 -0.999917 -0.012049
v -0.031401 -0.023498 -0.001447
vn 0.254107 -0.001545 0.967175
v -0.000021 -0.017521 0.012972
vn 0.068449 0.177411 0.981754
v -0.061334 0.021219 0.019155
vn 0.058766 -0.780766 0.622054
v -0.021106 -0.023024 0.015095
vn 0.110901 -0.002826 0.993828
v -0.022340 -0.015276 0.016187
vn -0.390896 0.021448 0.920185
v -0.086350 0.006466 0.021260
vn 0.067790 -0.026223 0.997355
v -0.084354 -0.008784 0.021110
vn -0.036613 -0.371039 0.927895
v -0.084287 -0.021694 0.020384
vn 0.865228 -0.000785 0.501378
v 0.010599 0.014290 0.006165
vn 0.565942 0.084391 0.820114
v 0.006108 0.014983 0.010642
vn 0.062383 0.772627 0.631788
v -0.021106 0.022947 0.015168
vn 0.544537 0.823729 0.157953
v 0.009107 0.022996 0.002738
vn 0.007902 0.999940 -0.007635
v -0.054723 0.023895 -0.007929
vn -0.008484 -0.999957 -0.003647
v -0.055856 -0.023490 -0.006144
vn 0.794376 0.308215 0.523422
v 0.009241 0.019990 0.006081
vn -0.015459 -0.001680 -0.999879
v -0.083806 0.010331 -0.019433
vn -0.499909 0.866061 0.005387
v -0.088015 0.022985 0.009208
vn -0.494118 0.869324 -0.011110
v -0.087973 0.023027 -0.016792
vn 0.253283 0.001546 -0.967391
v 0.000021 0.017521 -0.012972
vn 0.569498 0.079469 -0.818142
v 0.006142 0.015017 -0.010575
vn 0.862506 -0.118800 -0.491905
v 0.010619 -0.014990 -0.006132
vn 0.404309 0.826209 -0.392318
v 0.006206 0.023011 -0.007156
vn 0.840580 0.308655 -0.445149
v 0.009738 0.020008 -0.005179
vn 0.866820 0.000783 -0.498621
v 0.010619 -0.014290 -0.006131
vn 0.373399 -0.886711 0.272610
v 0.007970 -0.023008 0.005133
vn 0.873581 -0.486452 0.014847
v 0.010000 -0.022450 -0.000020
vn 0.848746 -0.301973 0.434100
v 0.009682 -0.020008 0.005037
vn 0.082448 0.096889 -0.991874
v -0.030156 0.016027 -0.017090
vn 0.037293 0.837336 -0.545415
v -0.021002 0.023023 -0.014679
vn 0.039863 0.377465 -0.925166
v -0.046434 0.021527 -0.016789
vn 0.080331 -0.025903 -0.996432
v -0.039303 -0.001387 -0.018216
vn 0.050612 -0.517663 -0.854086
v -0.036644 -0.022474 -0.016433
vn 0.036478 0.056207 -0.997753
v -0.055211 0.010171 -0.018890
vn -0.008122 -0.999967 0.001022
v -0.054609 -0.023521 0.012966
vn 0.009663 -0.999832 -0.015557
v -0.013121 -0.023346 -0.002440
vn 0.000015 -0.999999 -0.001585
v -0.032581 -0.023503 0.002036
vn 0.110913 -0.001582 0.993829
v -0.022240 0.010724 0.016222
vn 0.031503 -0.866552 0.498091
v -0.054511 -0.023028 0.017202
vn 0.068251 0.014768 0.997559
v -0.084354 0.006466 0.021135
vn 0.044600 0.274723 0.960489
v -0.067821 0.021219 0.019564
vn 0.058088 -0.402131 0.913738
v -0.074020 -0.021693 0.019737
vn 0.545693 -0.001315 0.837985
v 0.006108 0.014283 0.010641
vn 0.016963 0.962563 0.270527
v -0.054511 0.022943 0.017275
vn 0.396790 0.826617 0.399077
v 0.006183 0.022989 0.007249
vn 0.010461 0.999941 0.002893
v -0.048910 0.023901 0.002576
vn 0.800870 0.598729 -0.011424
v 0.010000 0.022450 0.000052
vn -0.017877 0.999787 -0.010345
v -0.065171 0.023896 -0.006771
vn 0.000005 1.000000 -0.000594
v -0.055799 0.023898 -0.002610
vn -0.012945 -0.997843 -0.064365
v -0.087039 -0.022972 -0.017625
vn 0.001720 -0.999453 -0.033036
v -0.052328 -0.023487 -0.008174
vn 0.631053 0.276225 0.724895
v 0.004879 0.019984 0.009968
vn -0.015788 0.001602 -0.999874
v -0.083806 0.012331 -0.019430
vn -0.614650 0.787877 0.038150
v -0.087966 0.022941 0.018583
vn -0.042201 0.999108 0.001831
v -0.080956 0.023290 0.006407
vn 0.123650 0.010198 -0.992274
v -0.029257 0.012227 -0.017057
vn 0.559248 0.001329 -0.828999
v 0.006142 0.014317 -0.010576
vn 0.772231 -0.302891 -0.558495
v 0.008945 -0.019990 -0.006311
vn 0.646647 0.298591 -0.701920
v 0.005736 0.020015 -0.009435
vn 0.860704 0.113361 -0.496324
v 0.010619 0.015010 -0.006084
vn 0.992404 -0.122962 0.003823
v 0.012250 -0.015000 -0.000004
vn 0.403461 -0.821987 0.401940
v 0.006183 -0.023011 0.007176
vn 0.556185 -0.817455 0.149751
v 0.009107 -0.023004 0.002665
vn 0.650230 -0.296704 0.699405
v 0.005698 -0.020015 0.009385
vn 0.042974 0.151057 -0.987591
v -0.079609 0.016130 -0.019242
vn 0.040281 0.377516 -0.925126
v -0.030450 0.021526 -0.016093
vn 0.002484 0.994137 -0.108104
v -0.059371 0.023893 -0.012446
vn 0.101268 -0.056793 -0.993237
v -0.023456 -0.016975 -0.015850
vn 0.036825 -0.889437 -0.455573
v -0.021002 -0.022977 -0.014752
vn 0.047874 -0.107465 -0.993056
v -0.062640 -0.013870 -0.018878
vn 0.032879 -0.007962 -0.999428
v -0.055211 -0.001386 -0.018909
vn -0.002619 -0.998503 0.054642
v -0.053437 -0.023524 0.015003
vn 0.374270 -0.885846 -0.274226
v 0.007986 -0.022992 -0.005181
vn 0.000003 -0.999999 -0.001592
v -0.051976 -0.023519 0.011547
vn 0.013043 -0.999914 -0.001595
v -0.011750 -0.023350 -0.000056
vn -0.000001 -0.999999 -0.001654
v -0.053504 -0.023488 -0.007591
vn 0.108183 0.032964 0.993584
v -0.022240 0.012924 0.016226
vn 0.046127 0.671397 0.739661
v -0.055806 0.022469 0.018358
vn 0.001766 0.111667 0.993744
v -0.081143 0.016579 0.020247
vn 0.070753 -0.060702 0.995645
v -0.061334 -0.018881 0.019091
vn 0.627901 0.387542 0.674945
v 0.004986 0.022436 0.008704
vn 0.015433 0.999880 0.001544
v -0.011750 0.023350 0.000018
vn 0.015577 0.999816 0.011168
v -0.013129 0.023346 0.002398
vn -0.020259 0.999793 -0.001744
v -0.066256 0.023899 -0.000962
vn 0.000002 1.000000 -0.000555
v -0.063029 0.023905 0.008199
vn 0.000012 1.000000 -0.000593
v -0.051569 0.023901 0.001501
vn 0.568947 -0.088198 -0.817631
v 0.006142 -0.014983 -0.010623
vn 0.951100 -0.300081 -0.073213
v 0.010877 -0.019999 -0.000739
vn 0.625166 0.409233 -0.664602
v 0.005013 0.022464 -0.008617
vn 0.858383 -0.122092 0.498270
v 0.010599 -0.015010 0.006118
vn 0.567847 -0.083187 0.818920
v 0.006108 -0.015017 0.010595
vn 0.626998 -0.399413 0.668837
v 0.004986 -0.022464 0.008633
vn 0.024596 0.825356 -0.564077
v -0.054470 0.023026 -0.016135
vn 0.040271 0.377519 -0.925126
v -0.041439 0.021526 -0.016571
vn 0.042249 0.237889 -0.970373
v -0.022457 0.021525 -0.015745
vn -0.025354 0.999261 -0.028886
v -0.078910 0.023324 -0.015278
vn 0.000006 1.000000 -0.000607
v -0.058289 0.023894 -0.009979
vn 0.031423 -0.701930 -0.711552
v -0.084093 -0.022805 -0.018748
vn 0.004216 -0.995135 -0.098427
v -0.054021 -0.022974 -0.016189
vn -0.000052 -0.999999 -0.001588
v -0.053682 -0.023521 0.013247
vn -0.000005 -0.999999 -0.001596
v -0.053788 -0.023493 -0.004718
vn 0.397416 -0.824057 -0.403721
v 0.006206 -0.022989 -0.007229
vn 0.553608 -0.817993 -0.156222
v 0.009116 -0.022996 -0.002709
vn 0.005435 -0.999984 -0.001469
v -0.030229 -0.023501 0.000590
vn 0.010944 -0.999886 0.010394
v -0.013129 -0.023354 0.002323
vn 0.000022 -0.999999 -0.001602
v -0.032085 -0.023500 0.000093
vn -0.002763 -0.999620 -0.027421
v -0.054678 -0.023487 -0.008178
vn 0.075281 0.422133 0.903403
v -0.042720 0.022322 0.017532
vn 0.077451 0.012944 0.996912
v -0.058839 0.018720 0.018994
vn 0.014749 0.999847 -0.009420
v -0.013121 0.023354 -0.002365
vn -0.019887 0.999802 -0.000584
v -0.066254 0.023900 0.000797
vn 0.000007 1.000000 -0.000598
v -0.055800 0.023898 -0.004120
vn 0.762680 -0.494398 -0.417002
v 0.008668 -0.022442 -0.005021
vn 0.000003 -0.999999 -0.001597
v -0.053228 -0.023493 -0.004718
vn 0.631414 -0.382668 -0.674450
v 0.005013 -0.022436 -0.008688
vn 0.004852 -0.999977 0.004724
v -0.031407 -0.023504 0.002623
vn 0.000012 -0.999999 -0.001617
v -0.032297 -0.023499 -0.000836
vn 0.000050 -0.999999 -0.001594
v -0.031157 -0.023502 0.000868
vn 0.049393 0.661887 0.747974
v -0.053610 0.022470 0.018219
vn -0.019880 0.999802 -0.000571
v -0.066248 0.023905 0.008055
vn -0.000022 1.000000 -0.000594
v -0.066029 0.023901 0.001457
vn -0.000002 1.000000 -0.000571
v -0.064377 0.023905 0.008200
vn -0.000000 1.000000 -0.000593
v -0.058281 0.023900 -0.000075
# 164 vertices, 0 vertices normals

f 8//8 1//1 3//3
f 9//9 3//3 1//1
f 9//9 1//1 5//5
f 16//16 9//9 5//5
f 25//25 8//8 3//3
f 28//28 15//15 8//8
f 29//29 3//3 9//9
f 29//29 9//9 16//16
f 31//31 5//5 1//1
f 31//31 1//1 18//18
f 32//32 18//18 1//1
f 32//32 1//1 8//8
f 33//33 11//11 18//18
f 36//36 10//10 27//27
f 36//36 14//14 2//2
f 44//44 23//23 7//7
f 44//44 26//26 4//4
f 44//44 7//7 26//26
f 46//46 7//7 24//24
f 46//46 42//42 7//7
f 47//47 24//24 7//7
f 47//47 7//7 23//23
f 48//48 8//8 25//25
f 49//49 13//13 25//25
f 49//49 24//24 47//47
f 49//49 47//47 23//23
f 49//49 23//23 13//13
f 50//50 25//25 3//3
f 51//51 26//26 14//14
f 51//51 36//36 27//27
f 51//51 14//14 36//36
f 53//53 4//4 28//28
f 54//54 30//30 10//10
f 56//56 3//3 29//29
f 56//56 29//29 16//16
f 57//57 27//27 10//10
f 57//57 10//10 30//30
f 57//57 52//52 27//27
f 58//58 31//31 18//18
f 58//58 5//5 31//31
f 58//58 41//41 5//5
f 59//59 8//8 15//15
f 60//60 33//33 18//18
f 60//60 18//18 32//32
f 60//60 32//32 59//59
f 60//60 15//15 33//33
f 61//61 34//34 12//12
f 61//61 12//12 39//39
f 62//62 61//61 6//6
f 62//62 34//34 61//61
f 64//64 17//17 35//35
f 64//64 6//6 55//55
f 65//65 35//35 17//17
f 65//65 10//10 36//36
f 66//66 36//36 2//2
f 66//66 19//19 36//36
f 66//66 63//63 34//34
f 66//66 34//34 19//19
f 70//70 38//38 6//6
f 71//71 6//6 38//38
f 72//72 11//11 33//33
f 73//73 39//39 12//12
f 73//73 21//21 39//39
f 73//73 40//40 41//41
f 74//74 40//40 12//12
f 75//75 21//21 73//73
f 76//76 3//3 56//56
f 79//79 44//44 4//4
f 79//79 23//23 44//44
f 79//79 13//13 23//23
f 80//80 3//3 42//42
f 80//80 42//42 46//46
f 80//80 50//50 3//3
f 80//80 46//46 50//50
f 81//81 48//48 25//25
f 81//81 25//25 13//13
f 81//81 13//13 79//79
f 82//82 81//81 45//45
f 82//82 48//48 81//81
f 83//83 50//50 46//46
f 83//83 46//46 24//24
f 83//83 49//49 25//25
f 83//83 25//25 50//50
f 84//84 52//52 4//4
f 84//84 4//4 26//26
f 84//84 26//26 51//51
f 84//84 51//51 27//27
f 84//84 27//27 52//52
f 85//85 53//53 28//28
f 85//85 28//28 8//8
f 86//86 28//28 4//4
f 86//86 30//30 54//54
f 86//86 57//57 30//30
f 87//87 28//28 86//86
f 88//88 54//54 10//10
f 88//88 17//17 54//54
f 88//88 65//65 17//17
f 88//88 10//10 65//65
f 91//91 56//56 16//16
f 91//91 16//16 5//5
f 92//92 77//77 43//43
f 92//92 12//12 77//77
f 93//93 57//57 4//4
f 93//93 4//4 52//52
f 93//93 52//52 57//57
f 94//94 58//58 18//18
f 94//94 18//18 11//11
f 94//94 75//75 58//58
f 94//94 11//11 75//75
f 95//95 59//59 32//32
f 95//95 32//32 8//8
f 95//95 8//8 59//59
f 96//96 60//60 59//59
f 96//96 59//59 15//15
f 96//96 15//15 60//60
f 97//97 61//61 39//39
f 97//97 6//6 61//61
f 97//97 70//70 6//6
f 97//97 39//39 21//21
f 97//97 21//21 70//70
f 98//98 62//62 19//19
f 98//98 19//19 34//34
f 98//98 34//34 62//62
f 100//100 64//64 35//35
f 100//100 35//35 65//65
f 100//100 62//62 6//6
f 101//101 65//65 36//36
f 101//101 36//36 19//19
f 101//101 100//100 65//65
f 101//101 19//19 62//62
f 101//101 62//62 100//100
f 102//102 66//66 2//2
f 102//102 63//63 66//66
f 102//102 69//69 68//68
f 102//102 2//2 14//14
f 103//103 67//67 37//37
f 104//104 37//37 67//67
f 104//104 20//20 68//68
f 104//104 69//69 37//37
f 104//104 68//68 69//69
f 105//105 103//103 37//37
f 105//105 37//37 69//69
f 106//106 70//70 21//21
f 106//106 75//75 11//11
f 106//106 21//21 75//75
f 106//106 38//38 70//70
f 106//106 11//11 72//72
f 107//107 71//71 38//38
f 108//108 55//55 6//6
f 108//108 6//6 71//71
f 109//109 73//73 12//12
f 109//109 12//12 40//40
f 109//109 40//40 73//73
f 110//110 74//74 12//12
f 110//110 12//12 92//92
f 111//111 41//41 40//40
f 111//111 40//40 74//74
f 111//111 5//5 41//41
f 112//112 41//41 58//58
f 112//112 58//58 75//75
f 112//112 75//75 73//73
f 112//112 73//73 41//41
f 113//113 42//42 3//3
f 113//113 3//3 76//76
f 113//113 22//22 42//42
f 115//115 78//78 42//42
f 115//115 42//42 22//22
f 116//116 43//43 77//77
f 116//116 104//104 67//67
f 116//116 20//20 104//104
f 116//116 77//77 114//114
f 117//117 92//92 43//43
f 118//118 79//79 4//4
f 118//118 81//81 79//79
f 119//119 82//82 45//45
f 119//119 8//8 82//82
f 119//119 85//85 8//8
f 119//119 53//53 85//85
f 120//120 82//82 8//8
f 120//120 8//8 48//48
f 120//120 48//48 82//82
f 121//121 83//83 24//24
f 121//121 24//24 49//49
f 121//121 49//49 83//83
f 122//122 86//86 4//4
f 122//122 4//4 57//57
f 122//122 57//57 86//86
f 123//123 54//54 17//17
f 124//124 87//87 86//86
f 124//124 86//86 54//54
f 124//124 123//123 87//87
f 124//124 54//54 123//123
f 125//125 89//89 33//33
f 126//126 15//15 28//28
f 126//126 28//28 90//90
f 127//127 87//87 55//55
f 127//127 90//90 28//28
f 127//127 28//28 87//87
f 128//128 99//99 12//12
f 128//128 12//12 34//34
f 128//128 34//34 63//63
f 128//128 63//63 99//99
f 129//129 102//102 68//68
f 129//129 63//63 102//102
f 130//130 100//100 6//6
f 130//130 6//6 64//64
f 130//130 64//64 100//100
f 131//131 102//102 14//14
f 131//131 69//69 102//102
f 131//131 105//105 69//69
f 131//131 14//14 26//26
f 132//132 26//26 7//7
f 132//132 7//7 105//105
f 132//132 131//131 26//26
f 132//132 105//105 131//131
f 133//133 105//105 7//7
f 133//133 7//7 103//103
f 133//133 103//103 105//105
f 134//134 107//107 33//33
f 134//134 71//71 107//107
f 134//134 108//108 71//71
f 134//134 33//33 108//108
f 135//135 72//72 33//33
f 135//135 33//33 107//107
f 135//135 107//107 106//106
f 135//135 106//106 72//72
f 136//136 107//107 38//38
f 136//136 38//38 106//106
f 136//136 106//106 107//107
f 137//137 108//108 33//33
f 137//137 33//33 89//89
f 137//137 89//89 108//108
f 138//138 55//55 108//108
f 138//138 108//108 89//89
f 139//139 74//74 110//110
f 139//139 91//91 5//5
f 139//139 111//111 74//74
f 139//139 5//5 111//111
f 140//140 110//110 92//92
f 140//140 92//92 91//91
f 140//140 139//139 110//110
f 140//140 91//91 139//139
f 141//141 113//113 76//76
f 141//141 76//76 56//56
f 141//141 56//56 113//113
f 142//142 113//113 56//56
f 142//142 22//22 113//113
f 142//142 56//56 117//117
f 142//142 115//115 22//22
f 143//143 114//114 77//77
f 143//143 77//77 12//12
f 144//144 68//68 20//20
f 144//144 129//129 68//68
f 144//144 116//116 114//114
f 144//144 20//20 116//116
f 145//145 43//43 116//116
f 146//146 103//103 7//7
f 146//146 116//116 67//67
f 146//146 67//67 103//103
f 146//146 7//7 42//42
f 148//148 117//117 56//56
f 148//148 56//56 91//91
f 148//148 91//91 92//92
f 148//148 92//92 117//117
f 149//149 118//118 4//4
f 149//149 4//4 53//53
f 149//149 45//45 118//118
f 150//150 118//118 45//45
f 150//150 45//45 81//81
f 150//150 81//81 118//118
f 151//151 123//123 17//17
f 151//151 17//17 64//64
f 151//151 64//64 55//55
f 151//151 55//55 87//87
f 151//151 87//87 123//123
f 152//152 89//89 125//125
f 152//152 125//125 33//33
f 153//153 127//127 55//55
f 153//153 90//90 127//127
f 153//153 55//55 138//138
f 153//153 138//138 89//89
f 154//154 99//99 63//63
f 154//154 63//63 129//129
f 154//154 129//129 144//144
f 154//154 144//144 114//114
f 154//154 143//143 99//99
f 154//154 114//114 143//143
f 155//155 78//78 115//115
f 155//155 115//115 142//142
f 155//155 147//147 78//78
f 155//155 142//142 117//117
f 155//155 117//117 147//147
f 156//156 143//143 12//12
f 156//156 12//12 99//99
f 156//156 99//99 143//143
f 157//157 42//42 78//78
f 157//157 146//146 42//42
f 157//157 78//78 147//147
f 157//157 145//145 116//116
f 157//157 116//116 146//146
f 158//158 147//147 117//117
f 158//158 117//117 43//43
f 158//158 43//43 147//147
f 159//159 147//147 43//43
f 159//159 43//43 145//145
f 159//159 157//157 147//147
f 159//159 145//145 157//157
f 160//160 119//119 45//45
f 160//160 45//45 149//149
f 160//160 149//149 53//53
f 160//160 53//53 119//119
f 161//161 152//152 33//33
f 161//161 33//33 15//15
f 162//162 152//152 161//161
f 162//162 89//89 152//152
f 162//162 153//153 89//89
f 162//162 90//90 153//153
f 163//163 161//161 15//15
f 163//163 15//15 126//126
f 163//163 162//162 161//161
f 164//164 163//163 126//126
f 164//164 126//126 90//90
f 164//164 90//90 162//162
f 164//164 162//162 163//163
# 324 faces, 0 coords texture

# End of File
