# Blender v3.0.1 OBJ File: 'tips_simple.blend'
# www.blender.org
mtllib tips_simple_cylinder.mtl
o Cylinder.001
v 0.000000 14.152635 15.902573
v 0.000000 14.166080 33.143440
v 1.110931 14.108986 15.902607
v 1.110931 14.122431 33.143475
v 2.215013 13.978310 15.902708
v 2.215013 13.991755 33.143578
v 3.305438 13.761411 15.902878
v 3.305438 13.774856 33.143745
v 4.375484 13.459627 15.903113
v 4.375484 13.473072 33.143982
v 5.418554 13.074818 15.903413
v 5.418554 13.088263 33.144279
v 6.428217 12.609357 15.903776
v 6.428217 12.622802 33.144646
v 7.398247 12.066113 15.904200
v 7.398247 12.079558 33.145065
v 8.322665 11.448438 15.904681
v 8.322665 11.461883 33.145550
v 9.195771 10.760137 15.905218
v 9.195771 10.773582 33.146088
v 10.012182 10.005455 15.905807
v 10.012182 10.018900 33.146675
v 10.766865 9.189044 15.906444
v 10.766865 9.202489 33.147312
v 11.455166 8.315939 15.907125
v 11.455166 8.329384 33.147991
v 12.072843 7.391520 15.907845
v 12.072843 7.404965 33.148712
v 12.616086 6.421492 15.908602
v 12.616086 6.434937 33.149467
v 13.081546 5.411829 15.909389
v 13.081546 5.425274 33.150257
v 13.466355 4.368759 15.910202
v 13.466355 4.382204 33.151070
v 13.768139 3.298715 15.911036
v 13.768139 3.312160 33.151905
v 13.985039 2.208289 15.911887
v 13.985039 2.221734 33.152756
v 14.115715 1.104208 15.912748
v 14.115715 1.117653 33.153618
v 14.159364 -0.006723 15.913614
v 14.159364 0.006722 33.154480
v 14.115715 -1.117652 15.914480
v 14.115715 -1.104207 33.155350
v 13.985039 -2.221734 15.915341
v 13.985039 -2.208289 33.156208
v 13.768139 -3.312159 15.916192
v 13.768139 -3.298714 33.157059
v 13.466354 -4.382205 15.917027
v 13.466354 -4.368760 33.157894
v 13.081547 -5.425273 15.917840
v 13.081547 -5.411829 33.158707
v 12.616085 -6.434937 15.918627
v 12.616085 -6.421493 33.159492
v 12.072843 -7.404965 15.919384
v 12.072843 -7.391520 33.160252
v 11.455166 -8.329383 15.920104
v 11.455166 -8.315938 33.160973
v 10.766865 -9.202489 15.920785
v 10.766865 -9.189044 33.161652
v 10.012182 -10.018900 15.921422
v 10.012182 -10.005455 33.162289
v 9.195771 -10.773582 15.922010
v 9.195771 -10.760138 33.162880
v 8.322664 -11.461884 15.922547
v 8.322664 -11.448439 33.163414
v 7.398246 -12.079559 15.923029
v 7.398246 -12.066114 33.163895
v 6.428218 -12.622801 15.923452
v 6.428218 -12.609356 33.164322
v 5.418555 -13.088263 15.923816
v 5.418555 -13.074818 33.164684
v 4.375484 -13.473071 15.924115
v 4.375484 -13.459626 33.164982
v 3.305438 -13.774856 15.924351
v 3.305438 -13.761411 33.165218
v 2.215012 -13.991755 15.924520
v 2.215012 -13.978310 33.165390
v 1.110930 -14.122432 15.924622
v 1.110930 -14.108987 33.165489
v -0.000001 -14.166080 15.924656
v -0.000001 -14.152635 33.165524
v -1.110929 -14.122432 15.924622
v -1.110929 -14.108987 33.165489
v -2.215011 -13.991755 15.924520
v -2.215011 -13.978310 33.165390
v -3.305437 -13.774856 15.924351
v -3.305437 -13.761411 33.165218
v -4.375484 -13.473072 15.924115
v -4.375484 -13.459627 33.164982
v -5.418554 -13.088263 15.923816
v -5.418554 -13.074818 33.164684
v -6.428217 -12.622802 15.923452
v -6.428217 -12.609357 33.164322
v -7.398248 -12.079558 15.923029
v -7.398248 -12.066113 33.163895
v -8.322667 -11.461883 15.922547
v -8.322667 -11.448438 33.163414
v -9.195770 -10.773582 15.922010
v -9.195770 -10.760138 33.162880
v -10.012181 -10.018901 15.921422
v -10.012181 -10.005456 33.162289
v -10.766867 -9.202487 15.920785
v -10.766867 -9.189042 33.161652
v -11.455168 -8.329381 15.920104
v -11.455168 -8.315936 33.160973
v -12.072841 -7.404968 15.919384
v -12.072841 -7.391523 33.160252
v -12.616085 -6.434938 15.918627
v -12.616085 -6.421494 33.159492
v -13.081546 -5.425276 15.917840
v -13.081546 -5.411831 33.158707
v -13.466354 -4.382206 15.917027
v -13.466354 -4.368761 33.157894
v -13.768139 -3.312160 15.916192
v -13.768139 -3.298715 33.157059
v -13.985038 -2.221735 15.915341
v -13.985038 -2.208290 33.156208
v -14.115715 -1.117653 15.914480
v -14.115715 -1.104208 33.155350
v -14.159364 -0.006722 15.913614
v -14.159364 0.006723 33.154480
v -14.115715 1.104208 15.912748
v -14.115715 1.117653 33.153618
v -13.985038 2.208290 15.911887
v -13.985038 2.221735 33.152756
v -13.768139 3.298715 15.911036
v -13.768139 3.312160 33.151905
v -13.466354 4.368762 15.910202
v -13.466354 4.382206 33.151070
v -13.081545 5.411831 15.909389
v -13.081545 5.425276 33.150257
v -12.616084 6.421494 15.908602
v -12.616084 6.434938 33.149467
v -12.072841 7.391524 15.907845
v -12.072841 7.404969 33.148712
v -11.455168 8.315936 15.907125
v -11.455168 8.329381 33.147991
v -10.766867 9.189042 15.906444
v -10.766867 9.202487 33.147312
v -10.012183 10.005453 15.905807
v -10.012183 10.018898 33.146675
v -9.195773 10.760137 15.905218
v -9.195773 10.773582 33.146088
v -8.322666 11.448438 15.904681
v -8.322666 11.461883 33.145550
v -7.398248 12.066113 15.904200
v -7.398248 12.079558 33.145065
v -6.428217 12.609357 15.903776
v -6.428217 12.622802 33.144646
v -5.418554 13.074819 15.903413
v -5.418554 13.088264 33.144279
v -4.375484 13.459627 15.903113
v -4.375484 13.473072 33.143982
v -3.305437 13.761411 15.902878
v -3.305437 13.774856 33.143745
v -2.215011 13.978310 15.902708
v -2.215011 13.991755 33.143578
v -1.110929 14.108987 15.902607
v -1.110929 14.122432 33.143475
vt 1.000000 0.500000
vt 1.000000 1.000000
vt 0.987500 1.000000
vt 0.987500 0.500000
vt 0.975000 1.000000
vt 0.975000 0.500000
vt 0.962500 1.000000
vt 0.962500 0.500000
vt 0.950000 1.000000
vt 0.950000 0.500000
vt 0.937500 1.000000
vt 0.937500 0.500000
vt 0.925000 1.000000
vt 0.925000 0.500000
vt 0.912500 1.000000
vt 0.912500 0.500000
vt 0.900000 1.000000
vt 0.900000 0.500000
vt 0.887500 1.000000
vt 0.887500 0.500000
vt 0.875000 1.000000
vt 0.875000 0.500000
vt 0.862500 1.000000
vt 0.862500 0.500000
vt 0.850000 1.000000
vt 0.850000 0.500000
vt 0.837500 1.000000
vt 0.837500 0.500000
vt 0.825000 1.000000
vt 0.825000 0.500000
vt 0.812500 1.000000
vt 0.812500 0.500000
vt 0.800000 1.000000
vt 0.800000 0.500000
vt 0.787500 1.000000
vt 0.787500 0.500000
vt 0.775000 1.000000
vt 0.775000 0.500000
vt 0.762500 1.000000
vt 0.762500 0.500000
vt 0.750000 1.000000
vt 0.750000 0.500000
vt 0.737500 1.000000
vt 0.737500 0.500000
vt 0.725000 1.000000
vt 0.725000 0.500000
vt 0.712500 1.000000
vt 0.712500 0.500000
vt 0.700000 1.000000
vt 0.700000 0.500000
vt 0.687500 1.000000
vt 0.687500 0.500000
vt 0.675000 1.000000
vt 0.675000 0.500000
vt 0.662500 1.000000
vt 0.662500 0.500000
vt 0.650000 1.000000
vt 0.650000 0.500000
vt 0.637500 1.000000
vt 0.637500 0.500000
vt 0.625000 1.000000
vt 0.625000 0.500000
vt 0.612500 1.000000
vt 0.612500 0.500000
vt 0.600000 1.000000
vt 0.600000 0.500000
vt 0.587500 1.000000
vt 0.587500 0.500000
vt 0.575000 1.000000
vt 0.575000 0.500000
vt 0.562500 1.000000
vt 0.562500 0.500000
vt 0.550000 1.000000
vt 0.550000 0.500000
vt 0.537500 1.000000
vt 0.537500 0.500000
vt 0.525000 1.000000
vt 0.525000 0.500000
vt 0.512500 1.000000
vt 0.512500 0.500000
vt 0.500000 1.000000
vt 0.500000 0.500000
vt 0.487500 1.000000
vt 0.487500 0.500000
vt 0.475001 1.000000
vt 0.475001 0.500000
vt 0.462501 1.000000
vt 0.462501 0.500000
vt 0.450001 1.000000
vt 0.450001 0.500000
vt 0.437501 1.000000
vt 0.437501 0.500000
vt 0.425001 1.000000
vt 0.425001 0.500000
vt 0.412501 1.000000
vt 0.412501 0.500000
vt 0.400001 1.000000
vt 0.400001 0.500000
vt 0.387501 1.000000
vt 0.387501 0.500000
vt 0.375001 1.000000
vt 0.375001 0.500000
vt 0.362501 1.000000
vt 0.362501 0.500000
vt 0.350001 1.000000
vt 0.350001 0.500000
vt 0.337501 1.000000
vt 0.337501 0.500000
vt 0.325001 1.000000
vt 0.325001 0.500000
vt 0.312501 1.000000
vt 0.312501 0.500000
vt 0.300001 1.000000
vt 0.300001 0.500000
vt 0.287501 1.000000
vt 0.287501 0.500000
vt 0.275001 1.000000
vt 0.275001 0.500000
vt 0.262501 1.000000
vt 0.262501 0.500000
vt 0.250001 1.000000
vt 0.250001 0.500000
vt 0.237501 1.000000
vt 0.237501 0.500000
vt 0.225001 1.000000
vt 0.225001 0.500000
vt 0.212501 1.000000
vt 0.212501 0.500000
vt 0.200001 1.000000
vt 0.200001 0.500000
vt 0.187501 1.000000
vt 0.187501 0.500000
vt 0.175001 1.000000
vt 0.175001 0.500000
vt 0.162501 1.000000
vt 0.162501 0.500000
vt 0.150001 1.000000
vt 0.150001 0.500000
vt 0.137501 1.000000
vt 0.137501 0.500000
vt 0.125001 1.000000
vt 0.125001 0.500000
vt 0.112501 1.000000
vt 0.112501 0.500000
vt 0.100001 1.000000
vt 0.100001 0.500000
vt 0.087501 1.000000
vt 0.087501 0.500000
vt 0.075001 1.000000
vt 0.075001 0.500000
vt 0.062501 1.000000
vt 0.062501 0.500000
vt 0.050001 1.000000
vt 0.050001 0.500000
vt 0.037501 1.000000
vt 0.037501 0.500000
vt 0.025001 1.000000
vt 0.025001 0.500000
vt 0.268830 0.489260
vt 0.250000 0.490000
vt 0.231170 0.489260
vt 0.212456 0.487045
vt 0.193973 0.483369
vt 0.175836 0.478254
vt 0.158156 0.471731
vt 0.141042 0.463842
vt 0.124600 0.454634
vt 0.108932 0.444164
vt 0.094132 0.432497
vt 0.080294 0.419706
vt 0.067503 0.405868
vt 0.055836 0.391068
vt 0.045366 0.375400
vt 0.036158 0.358958
vt 0.028269 0.341844
vt 0.021746 0.324164
vt 0.016631 0.306027
vt 0.012955 0.287544
vt 0.010740 0.268830
vt 0.010000 0.250000
vt 0.010740 0.231170
vt 0.012955 0.212456
vt 0.016631 0.193973
vt 0.021746 0.175836
vt 0.028269 0.158156
vt 0.036158 0.141042
vt 0.045366 0.124600
vt 0.055836 0.108932
vt 0.067503 0.094132
vt 0.080294 0.080294
vt 0.094132 0.067503
vt 0.108932 0.055836
vt 0.124600 0.045366
vt 0.141042 0.036158
vt 0.158156 0.028269
vt 0.175836 0.021746
vt 0.193973 0.016631
vt 0.212456 0.012955
vt 0.231170 0.010740
vt 0.250000 0.010000
vt 0.268830 0.010740
vt 0.287544 0.012955
vt 0.306027 0.016631
vt 0.324164 0.021746
vt 0.341844 0.028269
vt 0.358958 0.036158
vt 0.375400 0.045366
vt 0.391068 0.055836
vt 0.405868 0.067503
vt 0.419706 0.080294
vt 0.432497 0.094132
vt 0.444164 0.108932
vt 0.454634 0.124600
vt 0.463842 0.141042
vt 0.471731 0.158156
vt 0.478254 0.175836
vt 0.483369 0.193973
vt 0.487045 0.212456
vt 0.489260 0.231170
vt 0.490000 0.250000
vt 0.489260 0.268830
vt 0.487045 0.287544
vt 0.483369 0.306027
vt 0.478254 0.324164
vt 0.471731 0.341844
vt 0.463842 0.358958
vt 0.454634 0.375400
vt 0.444164 0.391068
vt 0.432497 0.405868
vt 0.419706 0.419706
vt 0.405868 0.432497
vt 0.391068 0.444164
vt 0.375400 0.454634
vt 0.358958 0.463842
vt 0.341844 0.471731
vt 0.324164 0.478254
vt 0.306027 0.483369
vt 0.287544 0.487045
vt 0.012501 1.000000
vt 0.012501 0.500000
vt 0.000001 1.000000
vt 0.000001 0.500000
vt 0.750000 0.490000
vt 0.768830 0.489260
vt 0.787544 0.487045
vt 0.806027 0.483369
vt 0.824164 0.478254
vt 0.841844 0.471731
vt 0.858958 0.463842
vt 0.875400 0.454634
vt 0.891068 0.444164
vt 0.905868 0.432497
vt 0.919706 0.419706
vt 0.932497 0.405868
vt 0.944164 0.391068
vt 0.954634 0.375400
vt 0.963842 0.358958
vt 0.971731 0.341844
vt 0.978254 0.324164
vt 0.983369 0.306027
vt 0.987045 0.287544
vt 0.989260 0.268830
vt 0.990000 0.250000
vt 0.989260 0.231170
vt 0.987045 0.212456
vt 0.983369 0.193973
vt 0.978254 0.175836
vt 0.971731 0.158156
vt 0.963842 0.141042
vt 0.954634 0.124600
vt 0.944164 0.108932
vt 0.932497 0.094132
vt 0.919706 0.080294
vt 0.905868 0.067503
vt 0.891068 0.055836
vt 0.875400 0.045366
vt 0.858958 0.036158
vt 0.841844 0.028269
vt 0.824164 0.021746
vt 0.806027 0.016631
vt 0.787544 0.012955
vt 0.768830 0.010740
vt 0.750000 0.010000
vt 0.731170 0.010740
vt 0.712456 0.012955
vt 0.693973 0.016631
vt 0.675836 0.021746
vt 0.658156 0.028269
vt 0.641042 0.036158
vt 0.624600 0.045366
vt 0.608932 0.055836
vt 0.594132 0.067503
vt 0.580294 0.080294
vt 0.567503 0.094132
vt 0.555836 0.108932
vt 0.545366 0.124600
vt 0.536158 0.141042
vt 0.528269 0.158156
vt 0.521746 0.175836
vt 0.516631 0.193973
vt 0.512955 0.212456
vt 0.510740 0.231170
vt 0.510000 0.250000
vt 0.510740 0.268830
vt 0.512955 0.287544
vt 0.516631 0.306027
vt 0.521746 0.324164
vt 0.528269 0.341844
vt 0.536158 0.358958
vt 0.545366 0.375400
vt 0.555836 0.391068
vt 0.567503 0.405868
vt 0.580294 0.419706
vt 0.594132 0.432497
vt 0.608932 0.444164
vt 0.624600 0.454634
vt 0.641042 0.463842
vt 0.658156 0.471731
vt 0.675836 0.478254
vt 0.693973 0.483369
vt 0.712456 0.487045
vt 0.731170 0.489260
vn 0.0393 0.9992 -0.0008
vn 0.1175 0.9931 -0.0008
vn 0.1951 0.9808 -0.0008
vn 0.2714 0.9625 -0.0008
vn 0.3461 0.9382 -0.0007
vn 0.4187 0.9081 -0.0007
vn 0.4886 0.8725 -0.0007
vn 0.5556 0.8315 -0.0006
vn 0.6191 0.7853 -0.0006
vn 0.6788 0.7343 -0.0006
vn 0.7343 0.6788 -0.0005
vn 0.7853 0.6191 -0.0005
vn 0.8315 0.5556 -0.0004
vn 0.8725 0.4886 -0.0004
vn 0.9081 0.4187 -0.0003
vn 0.9382 0.3461 -0.0003
vn 0.9625 0.2714 -0.0002
vn 0.9808 0.1951 -0.0002
vn 0.9931 0.1175 -0.0001
vn 0.9992 0.0393 -0.0000
vn 0.9992 -0.0393 0.0000
vn 0.9931 -0.1175 0.0001
vn 0.9808 -0.1951 0.0002
vn 0.9625 -0.2714 0.0002
vn 0.9382 -0.3461 0.0003
vn 0.9081 -0.4187 0.0003
vn 0.8725 -0.4886 0.0004
vn 0.8315 -0.5556 0.0004
vn 0.7853 -0.6191 0.0005
vn 0.7343 -0.6788 0.0005
vn 0.6788 -0.7343 0.0006
vn 0.6191 -0.7853 0.0006
vn 0.5556 -0.8315 0.0006
vn 0.4886 -0.8725 0.0007
vn 0.4187 -0.9081 0.0007
vn 0.3461 -0.9382 0.0007
vn 0.2714 -0.9625 0.0008
vn 0.1951 -0.9808 0.0008
vn 0.1175 -0.9931 0.0008
vn 0.0393 -0.9992 0.0008
vn -0.0393 -0.9992 0.0008
vn -0.1175 -0.9931 0.0008
vn -0.1951 -0.9808 0.0008
vn -0.2714 -0.9625 0.0008
vn -0.3461 -0.9382 0.0007
vn -0.4187 -0.9081 0.0007
vn -0.4886 -0.8725 0.0007
vn -0.5556 -0.8315 0.0006
vn -0.6191 -0.7853 0.0006
vn -0.6788 -0.7343 0.0006
vn -0.7343 -0.6788 0.0005
vn -0.7853 -0.6191 0.0005
vn -0.8315 -0.5556 0.0004
vn -0.8725 -0.4886 0.0004
vn -0.9081 -0.4187 0.0003
vn -0.9382 -0.3461 0.0003
vn -0.9625 -0.2714 0.0002
vn -0.9808 -0.1951 0.0002
vn -0.9931 -0.1175 0.0001
vn -0.9992 -0.0393 0.0000
vn -0.9992 0.0393 -0.0000
vn -0.9931 0.1175 -0.0001
vn -0.9808 0.1951 -0.0002
vn -0.9625 0.2714 -0.0002
vn -0.9382 0.3461 -0.0003
vn -0.9081 0.4187 -0.0003
vn -0.8725 0.4886 -0.0004
vn -0.8315 0.5556 -0.0004
vn -0.7853 0.6191 -0.0005
vn -0.7343 0.6788 -0.0005
vn -0.6788 0.7343 -0.0006
vn -0.6191 0.7853 -0.0006
vn -0.5556 0.8315 -0.0006
vn -0.4886 0.8725 -0.0007
vn -0.4187 0.9081 -0.0007
vn -0.3461 0.9382 -0.0007
vn -0.2714 0.9625 -0.0008
vn -0.1951 0.9808 -0.0008
vn -0.0000 0.0008 1.0000
vn -0.1175 0.9931 -0.0008
vn -0.0393 0.9992 -0.0008
vn -0.0000 -0.0008 -1.0000
usemtl None
s off
f 1/1/1 2/2/1 4/3/1 3/4/1
f 3/4/2 4/3/2 6/5/2 5/6/2
f 5/6/3 6/5/3 8/7/3 7/8/3
f 7/8/4 8/7/4 10/9/4 9/10/4
f 9/10/5 10/9/5 12/11/5 11/12/5
f 11/12/6 12/11/6 14/13/6 13/14/6
f 13/14/7 14/13/7 16/15/7 15/16/7
f 15/16/8 16/15/8 18/17/8 17/18/8
f 17/18/9 18/17/9 20/19/9 19/20/9
f 19/20/10 20/19/10 22/21/10 21/22/10
f 21/22/11 22/21/11 24/23/11 23/24/11
f 23/24/12 24/23/12 26/25/12 25/26/12
f 25/26/13 26/25/13 28/27/13 27/28/13
f 27/28/14 28/27/14 30/29/14 29/30/14
f 29/30/15 30/29/15 32/31/15 31/32/15
f 31/32/16 32/31/16 34/33/16 33/34/16
f 33/34/17 34/33/17 36/35/17 35/36/17
f 35/36/18 36/35/18 38/37/18 37/38/18
f 37/38/19 38/37/19 40/39/19 39/40/19
f 39/40/20 40/39/20 42/41/20 41/42/20
f 41/42/21 42/41/21 44/43/21 43/44/21
f 43/44/22 44/43/22 46/45/22 45/46/22
f 45/46/23 46/45/23 48/47/23 47/48/23
f 47/48/24 48/47/24 50/49/24 49/50/24
f 49/50/25 50/49/25 52/51/25 51/52/25
f 51/52/26 52/51/26 54/53/26 53/54/26
f 53/54/27 54/53/27 56/55/27 55/56/27
f 55/56/28 56/55/28 58/57/28 57/58/28
f 57/58/29 58/57/29 60/59/29 59/60/29
f 59/60/30 60/59/30 62/61/30 61/62/30
f 61/62/31 62/61/31 64/63/31 63/64/31
f 63/64/32 64/63/32 66/65/32 65/66/32
f 65/66/33 66/65/33 68/67/33 67/68/33
f 67/68/34 68/67/34 70/69/34 69/70/34
f 69/70/35 70/69/35 72/71/35 71/72/35
f 71/72/36 72/71/36 74/73/36 73/74/36
f 73/74/37 74/73/37 76/75/37 75/76/37
f 75/76/38 76/75/38 78/77/38 77/78/38
f 77/78/39 78/77/39 80/79/39 79/80/39
f 79/80/40 80/79/40 82/81/40 81/82/40
f 81/82/41 82/81/41 84/83/41 83/84/41
f 83/84/42 84/83/42 86/85/42 85/86/42
f 85/86/43 86/85/43 88/87/43 87/88/43
f 87/88/44 88/87/44 90/89/44 89/90/44
f 89/90/45 90/89/45 92/91/45 91/92/45
f 91/92/46 92/91/46 94/93/46 93/94/46
f 93/94/47 94/93/47 96/95/47 95/96/47
f 95/96/48 96/95/48 98/97/48 97/98/48
f 97/98/49 98/97/49 100/99/49 99/100/49
f 99/100/50 100/99/50 102/101/50 101/102/50
f 101/102/51 102/101/51 104/103/51 103/104/51
f 103/104/52 104/103/52 106/105/52 105/106/52
f 105/106/53 106/105/53 108/107/53 107/108/53
f 107/108/54 108/107/54 110/109/54 109/110/54
f 109/110/55 110/109/55 112/111/55 111/112/55
f 111/112/56 112/111/56 114/113/56 113/114/56
f 113/114/57 114/113/57 116/115/57 115/116/57
f 115/116/58 116/115/58 118/117/58 117/118/58
f 117/118/59 118/117/59 120/119/59 119/120/59
f 119/120/60 120/119/60 122/121/60 121/122/60
f 121/122/61 122/121/61 124/123/61 123/124/61
f 123/124/62 124/123/62 126/125/62 125/126/62
f 125/126/63 126/125/63 128/127/63 127/128/63
f 127/128/64 128/127/64 130/129/64 129/130/64
f 129/130/65 130/129/65 132/131/65 131/132/65
f 131/132/66 132/131/66 134/133/66 133/134/66
f 133/134/67 134/133/67 136/135/67 135/136/67
f 135/136/68 136/135/68 138/137/68 137/138/68
f 137/138/69 138/137/69 140/139/69 139/140/69
f 139/140/70 140/139/70 142/141/70 141/142/70
f 141/142/71 142/141/71 144/143/71 143/144/71
f 143/144/72 144/143/72 146/145/72 145/146/72
f 145/146/73 146/145/73 148/147/73 147/148/73
f 147/148/74 148/147/74 150/149/74 149/150/74
f 149/150/75 150/149/75 152/151/75 151/152/75
f 151/152/76 152/151/76 154/153/76 153/154/76
f 153/154/77 154/153/77 156/155/77 155/156/77
f 155/156/78 156/155/78 158/157/78 157/158/78
f 4/159/79 2/160/79 160/161/79 158/162/79 156/163/79 154/164/79 152/165/79 150/166/79 148/167/79 146/168/79 144/169/79 142/170/79 140/171/79 138/172/79 136/173/79 134/174/79 132/175/79 130/176/79 128/177/79 126/178/79 124/179/79 122/180/79 120/181/79 118/182/79 116/183/79 114/184/79 112/185/79 110/186/79 108/187/79 106/188/79 104/189/79 102/190/79 100/191/79 98/192/79 96/193/79 94/194/79 92/195/79 90/196/79 88/197/79 86/198/79 84/199/79 82/200/79 80/201/79 78/202/79 76/203/79 74/204/79 72/205/79 70/206/79 68/207/79 66/208/79 64/209/79 62/210/79 60/211/79 58/212/79 56/213/79 54/214/79 52/215/79 50/216/79 48/217/79 46/218/79 44/219/79 42/220/79 40/221/79 38/222/79 36/223/79 34/224/79 32/225/79 30/226/79 28/227/79 26/228/79 24/229/79 22/230/79 20/231/79 18/232/79 16/233/79 14/234/79 12/235/79 10/236/79 8/237/79 6/238/79
f 157/158/80 158/157/80 160/239/80 159/240/80
f 159/240/81 160/239/81 2/241/81 1/242/81
f 1/243/82 3/244/82 5/245/82 7/246/82 9/247/82 11/248/82 13/249/82 15/250/82 17/251/82 19/252/82 21/253/82 23/254/82 25/255/82 27/256/82 29/257/82 31/258/82 33/259/82 35/260/82 37/261/82 39/262/82 41/263/82 43/264/82 45/265/82 47/266/82 49/267/82 51/268/82 53/269/82 55/270/82 57/271/82 59/272/82 61/273/82 63/274/82 65/275/82 67/276/82 69/277/82 71/278/82 73/279/82 75/280/82 77/281/82 79/282/82 81/283/82 83/284/82 85/285/82 87/286/82 89/287/82 91/288/82 93/289/82 95/290/82 97/291/82 99/292/82 101/293/82 103/294/82 105/295/82 107/296/82 109/297/82 111/298/82 113/299/82 115/300/82 117/301/82 119/302/82 121/303/82 123/304/82 125/305/82 127/306/82 129/307/82 131/308/82 133/309/82 135/310/82 137/311/82 139/312/82 141/313/82 143/314/82 145/315/82 147/316/82 149/317/82 151/318/82 153/319/82 155/320/82 157/321/82 159/322/82
